<svg width="50" height="50" viewBox="0 0 50 50" fill="none" xmlns="http://www.w3.org/2000/svg">
<g clip-path="url(#clip0_55_786)">
<path d="M25 0C11.2152 0 0 11.2152 0 25C0 38.7848 11.2152 50 25 50C38.7848 50 50 38.7848 50 25C50 11.2152 38.7848 0 25 0ZM25 46.875C12.9379 46.875 3.12501 37.0621 3.12501 25C3.12501 12.9379 12.9379 3.12501 25 3.12501C37.0621 3.12501 46.875 12.9379 46.875 25C46.875 37.0621 37.0621 46.875 25 46.875Z" fill="#0184BA"/>
<path d="M26.5625 9.375H23.4375V25.6469L33.2703 35.4797L35.4797 33.2702L26.5625 24.353V9.375Z" fill="#0184BA"/>
</g>
<defs>
<clipPath id="clip0_55_786">
<rect width="50" height="50" fill="white"/>
</clipPath>
</defs>
</svg>
