<svg width="150" height="111" viewBox="0 0 150 111" fill="none" xmlns="http://www.w3.org/2000/svg">
<path d="M111.052 88.4582C115.919 81.3992 118.77 72.839 118.77 63.6139C118.77 39.4233 99.1739 19.8136 74.9999 19.8136C50.8258 19.8136 31.2295 39.4233 31.2295 63.6139C31.2295 72.839 34.0795 81.3978 38.9481 88.4582H111.052Z" fill="#85D5F8"/>
<path d="M101.658 87.4363C105.783 81.8166 108.908 73.8946 108.908 66.3858C108.908 47.6461 93.7269 32.4543 75.0001 32.4543C56.2733 32.4543 41.0918 47.6461 41.0918 66.3858C41.0918 73.8946 43.5303 80.8313 47.6557 86.4524L101.658 87.4363Z" fill="#00BBF2"/>
<path d="M74.9998 85.1606C85.3672 85.1606 93.7716 76.7504 93.7716 66.3759C93.7716 56.0015 85.3672 47.5913 74.9998 47.5913C64.6324 47.5913 56.228 56.0015 56.228 66.3759C56.228 76.7504 64.6324 85.1606 74.9998 85.1606Z" fill="#0184BA"/>
<path d="M66.6661 58.3878C66.7433 58.4075 66.8206 58.4286 66.9006 58.4511C66.5115 58.2304 66.1225 58.0111 65.732 57.7905C66.6857 58.0898 67.6353 58.3977 68.5806 58.7168C68.3179 58.4609 68.0567 58.2037 67.7968 57.9451C67.7996 57.9408 69.8083 58.7856 70.2957 59.4041C70.1131 59.0414 69.9333 58.6774 69.7577 58.3105C69.7605 58.3077 71.8605 59.4561 72.2481 60.18C71.8633 59.3971 70.2704 55.0411 66.034 55.8844C68.4612 52.1525 65.7067 48.6905 65.069 47.9722C65.5128 48.6736 65.4609 51.2586 65.4763 51.2529C65.2277 50.9296 64.9791 50.6049 64.7333 50.2788C65.0423 51.0224 64.8892 53.3698 64.9032 53.367C64.7796 53.01 64.6602 52.6501 64.5422 52.2889C64.406 53.3684 64.2992 54.4423 64.222 55.5077C64.1644 55.0397 64.1138 54.5702 64.0674 54.0965C63.9986 54.6967 63.8722 55.2196 63.7163 55.6736C63.8258 52.0443 62.2119 50.1917 60.2313 49.4031C58.2775 48.5963 55.957 48.8521 55.2448 49.0011C56.4093 48.9393 58.8014 50.82 58.8042 50.8158C58.241 50.8425 57.6749 50.8762 57.1088 50.9156C58.1454 51.0814 60.1569 52.9748 60.1611 52.9706C59.706 52.8258 59.2509 52.6838 58.7944 52.5433C59.654 53.4696 60.5249 54.386 61.4042 55.2899C60.9252 54.982 60.4477 54.6742 59.9687 54.3664C60.56 55.0115 60.9491 55.6694 61.2076 56.278C58.5893 54.1808 55.8868 54.7768 53.8332 56.2176C51.7655 57.6358 50.3454 59.8975 49.9661 60.6059C50.7247 59.4673 53.909 58.0603 53.9104 58.0828C53.5227 58.5959 53.1421 59.1145 52.7684 59.6388C53.6337 58.7463 56.5568 57.8523 56.5554 57.8692C56.1115 58.191 55.6704 58.5186 55.2322 58.8517C56.5638 58.5242 57.8954 58.2346 59.2228 57.983C58.6385 58.2164 58.0541 58.4581 57.4712 58.7083C58.0471 58.5945 59.1455 58.5678 59.9406 58.6029C60.1934 58.7294 56.0328 61.0838 51.7009 67.1125C48.4969 71.5163 45.1974 77.9723 44.0371 85.6905L48.2131 87.1509C48.348 85.0341 48.6739 82.9116 49.1669 80.8664C50.1825 76.5751 51.9214 72.6239 53.8121 69.391C57.6313 62.8591 61.9099 59.3479 61.8678 59.3296C62.07 60.2137 61.9043 61.8133 61.3775 63.642C61.6641 63.0882 61.9605 62.5386 62.2639 61.9932C61.82 63.292 61.4211 64.5992 61.0685 65.9107C61.3789 65.5115 61.695 65.1179 62.0153 64.7286C61.9675 64.8115 61.0404 67.537 60.3507 68.3283C60.7918 67.998 61.2357 67.6747 61.6809 67.3585C61.6585 67.3528 60.5165 70.3707 59.6948 71.1058C60.2679 70.7193 62.0223 69.4683 63.2935 67.6902C64.5689 65.8798 65.3611 63.5422 64.0969 60.2615C64.0857 60.2306 64.0731 60.2011 64.0604 60.1716C64.4018 60.5497 64.7375 61.0093 65.0465 61.5716C64.885 61.0135 64.7318 60.4513 64.5872 59.8834C65.1476 61.0304 65.7362 62.1563 66.35 63.2569C66.3163 62.7832 66.2896 62.3067 66.2685 61.8274C66.2573 61.8372 67.4189 64.3448 67.4218 65.333C67.5327 64.827 67.6521 64.3195 67.7785 63.8135C67.7631 63.8276 68.891 66.6163 68.7506 67.6087C68.9711 66.5179 70.6131 61.334 66.6675 58.3892L66.6661 58.3878Z" fill="#261655"/>
<path d="M101.006 87.0202C101.006 87.0202 95.0654 81.7562 86.4155 82.9819C84.2538 79.8783 80.7829 77.8669 76.8681 77.8669C75.6896 77.8669 74.5504 78.0496 73.4759 78.3898C71.8198 74.1279 68.2632 71.179 64.1405 71.179C62.1825 71.179 60.3508 71.8438 58.7916 72.9992C57.1145 71.8438 55.1466 71.179 53.0424 71.179C48.7329 71.179 45.8534 74.1322 44.0147 78.207C43.3685 78.0918 41.8501 77.8655 41.1731 77.8655C34.7974 77.8655 29.5973 83.2012 29.3164 89.8961H120.689C120.689 89.8961 105.104 84.1415 101.008 87.0188L101.006 87.0202Z" fill="#261655"/>
<path d="M107.748 36.799C106.836 35.3934 104.452 34.3898 101.653 34.3898C98.0682 34.3898 95.162 36.0357 95.162 38.0655C95.162 38.1568 95.1704 38.2468 95.1817 38.3367C92.8092 38.8835 91.1377 40.202 91.1377 41.7411C91.1377 41.8719 91.2149 42.0377 91.3442 42.2247C92.2825 43.5881 94.7097 44.4329 97.2873 44.3331L113.941 43.6851C112.677 41.2126 111.182 38.8779 109.489 36.7062C109.482 36.7062 109.475 36.7062 109.468 36.7062C108.88 36.7062 108.304 36.74 107.748 36.8018V36.799Z" fill="white"/>
<path d="M41.6141 49.1754C41.6141 47.7853 39.7557 46.658 37.4633 46.658C37.188 46.658 36.9197 46.6748 36.6598 46.7058C36.3747 46.2335 35.7791 45.854 35.0234 45.6544C34.3309 47.1949 33.7255 48.7833 33.2114 50.4124L41.343 50.0736C41.5185 49.7953 41.6155 49.4931 41.6155 49.1768L41.6141 49.1754Z" fill="white"/>
<path d="M35.1343 67.8054C35.2129 67.7113 35.2607 67.6283 35.2607 67.5637C35.2607 66.7934 34.2381 66.1356 32.7885 65.8615C32.7955 65.8165 32.7997 65.7715 32.7997 65.7265C32.7997 65.1207 32.1676 64.5838 31.1914 64.2492C31.2139 65.8067 31.3164 67.3458 31.4976 68.8597H31.5004C33.0764 68.9103 34.5612 68.4872 35.1343 67.8054Z" fill="white"/>
<path d="M115.143 74.3163C114.546 72.6872 112.983 71.5261 111.148 71.5261C108.799 71.5261 106.894 73.4321 106.894 75.7837C106.894 75.8892 106.899 75.9932 106.906 76.0972C105.351 76.7311 104.256 78.2576 104.256 80.0399C104.256 80.1903 104.306 80.3843 104.391 80.6008C105.006 82.1807 106.596 83.159 108.286 83.0423L114.397 82.622C115.667 79.9893 116.681 77.2118 117.408 74.3191C117.04 74.246 116.66 74.2066 116.271 74.2066C115.882 74.2066 115.509 74.2446 115.143 74.3163Z" fill="white"/>
<path d="M96.1173 81.6072H96.4418C96.6525 81.6072 96.8238 81.4357 96.8238 81.2249C96.8238 81.0084 96.644 80.8355 96.4277 80.8439L95.9473 80.8622L93.0552 77.2835V77.1668C93.0552 76.9433 92.8739 76.762 92.6506 76.762C92.4273 76.762 92.2405 76.949 92.2461 77.1767L92.2573 77.6644L89.4003 77.6068L89.4101 77.2203C89.4157 76.9701 89.2148 76.7634 88.9648 76.7634C88.7148 76.7634 88.5195 76.963 88.5195 77.209V77.2807C88.5195 77.2807 88.5209 77.3215 88.5294 77.3946C88.7134 79.2753 89.3595 80.7961 91.3836 81.4048L90.0323 83.1885L90.3203 83.3698L91.7376 81.5004H91.7755L93.6325 83.9194L93.9204 83.7367L92.2714 81.5917C92.7574 81.6634 93.2953 81.7014 93.9106 81.6887L95.0385 81.6479L93.2026 84.0122L93.4906 84.1935L95.4768 81.6311L95.7071 81.6226L97.2944 85.2519L97.5824 85.0692L96.1215 81.6072H96.1173ZM94.8405 80.9395C94.4247 80.969 94.03 80.7779 93.8165 80.4518C93.4709 79.9247 93.0411 79.0251 93.0552 77.8598L95.5063 80.8931L94.8419 80.9395H94.8405Z" fill="#261655"/>
<path d="M97.7341 69.7298L86.452 65.4764C86.4548 65.4511 86.4604 65.4258 86.4604 65.3991C86.4604 64.983 86.1233 64.6471 85.7089 64.6471C85.2945 64.6471 84.9574 64.9844 84.9574 65.3991C84.9574 65.5214 84.9897 65.6352 85.0403 65.7364L75.8173 73.033C74.997 73.6824 75.5673 75.0008 76.6025 74.8448L85.9182 73.4434L87.1641 85.1241L88.3932 84.9919L87.1417 73.2579L97.5262 71.6948C98.5671 71.5388 98.7188 70.0994 97.7341 69.7284V69.7298Z" fill="#261655"/>
<path d="M66.704 20.515C66.8599 20.5009 67.0187 20.4897 67.1802 20.4812C66.3135 20.3238 65.4454 20.1678 64.5774 20.0117C66.5467 19.9485 68.5132 19.9049 70.4783 19.881C69.8237 19.5746 69.1706 19.2654 68.5188 18.9547C68.5202 18.9463 72.8072 19.2091 74.1164 20.0441C73.5419 19.4889 72.9716 18.928 72.4041 18.3602C72.4069 18.3531 77.0605 19.122 78.2517 20.2184C77.0282 19.0124 71.234 11.9435 63.9003 16.27C65.9919 7.74917 58.6174 3.09798 56.967 2.17731C58.2494 3.19216 59.831 8.0345 59.8577 8.01623C59.1835 7.57627 58.5121 7.13351 57.8421 6.68652C58.8984 7.86864 60.1415 12.3357 60.1625 12.3216C59.7018 11.7369 59.2439 11.1465 58.7916 10.5506C59.2383 12.6477 59.7383 14.714 60.2876 16.7465C59.8774 15.913 59.4757 15.0724 59.0824 14.222C59.3436 15.3817 59.4476 16.4387 59.4532 17.3847C57.2985 10.5618 53.0929 8.16523 48.8972 7.98671C44.7367 7.75619 40.5873 9.74233 39.3596 10.4831C41.4863 9.6102 47.1583 11.5528 47.1597 11.5443C46.1287 11.9618 45.0991 12.3905 44.0708 12.8319C46.1076 12.465 51.0801 14.6817 51.0843 14.669C50.1446 14.6957 49.2049 14.728 48.2637 14.7646C50.4648 15.9298 52.6786 17.067 54.9035 18.176C53.8135 17.9146 52.7235 17.6545 51.6335 17.3931C53.1533 18.2083 54.3023 19.1796 55.1788 20.1425C48.945 17.9441 44.3054 20.8115 41.4203 24.8274C38.4944 28.8095 37.3229 33.9414 37.0757 35.5058C37.7471 32.8956 42.7589 28.2051 42.7744 28.2458C42.3867 29.4519 42.0158 30.6649 41.6605 31.8836C42.6915 29.6599 47.5474 26.0953 47.5572 26.1276C46.9406 27.0145 46.3323 27.9099 45.7326 28.8165C47.9969 27.3406 50.285 25.9364 52.5929 24.6039C51.656 25.4177 50.7275 26.2485 49.806 27.0932C50.8019 26.5057 52.8303 25.7424 54.3318 25.2898C54.8853 25.3615 48.6739 32.4486 44.5302 46.4823C41.4287 56.7587 39.4847 70.9175 42.3403 86.0293H51.0562C49.9325 82.0022 49.1613 77.8416 48.7483 73.7175C47.8508 65.0744 48.518 56.5901 49.9353 49.3455C52.7994 34.7103 58.477 25.3924 58.3857 25.3868C59.3352 26.8993 60.067 29.9846 60.2749 33.7291C60.4491 32.5133 60.6415 31.2988 60.8522 30.0858C60.8705 32.7916 60.9772 35.4819 61.1725 38.1512C61.4928 37.2066 61.8228 36.2691 62.1642 35.3358C62.1305 35.5213 62.1726 41.1944 61.4057 43.1158C62.0111 42.2134 62.6263 41.3237 63.2514 40.4452C63.2064 40.4508 63.0435 46.807 61.99 48.7088C62.8047 47.6152 65.2558 44.149 66.4652 40.0122C67.662 35.8151 67.6184 30.9502 63.1348 25.6693C63.0926 25.6202 63.0505 25.5724 63.007 25.5246C63.8863 26.0053 64.8105 26.6434 65.7502 27.4882C65.0887 26.5549 64.4383 25.6075 63.7978 24.6475C65.5859 26.4185 67.4105 28.1292 69.2703 29.7766C68.9009 28.9163 68.5399 28.0476 68.1887 27.1705C68.1733 27.1973 71.9644 31.1063 72.6106 32.9434C72.4898 31.9286 72.3816 30.9081 72.2875 29.8834C72.2664 29.9199 76.1784 34.3743 76.5605 36.3113C76.2613 34.1382 75.9508 23.4246 66.697 20.5121L66.704 20.515Z" fill="#261655"/>
<path d="M71.6722 42.6899C72.088 42.6618 72.5023 42.6899 72.9167 42.7321C73.3297 42.7827 73.7426 42.8572 74.1486 42.9753C74.5573 43.0891 74.9591 43.2508 75.3467 43.4883C75.542 43.6064 75.726 43.7568 75.8918 43.948C76.0547 44.1377 76.1966 44.3823 76.2499 44.6634L75.5364 44.5425C75.8047 44.1138 76.1081 43.8046 76.4606 43.5108C76.8202 43.2367 77.2051 42.9907 77.6293 42.8418C78.0493 42.6871 78.4847 42.5817 78.9244 42.5648C79.3612 42.5395 79.7953 42.5887 80.2097 42.6899C79.7855 42.763 79.3767 42.8165 78.9876 42.943C78.5943 43.0428 78.2291 43.2142 77.8822 43.3928C77.5394 43.5825 77.2177 43.8046 76.9354 44.0703C76.6503 44.3176 76.3792 44.6353 76.2036 44.9207L76.1867 44.9488C76.0772 45.1259 75.8454 45.1821 75.667 45.0725C75.5673 45.0106 75.5055 44.908 75.49 44.7998C75.4577 44.5538 75.2302 44.2994 74.938 44.0885C74.6486 43.8693 74.2975 43.702 73.9421 43.5347C73.2201 43.2171 72.4504 42.9598 71.668 42.6899H71.6722Z" fill="#261655"/>
<path d="M33.5752 56.5071C34.1975 56.4355 34.8211 56.4917 35.4378 56.6477C35.7482 56.7264 36.0516 56.8487 36.3522 57.0244C36.6401 57.1973 36.973 57.484 37.0686 57.9549L36.3536 57.834C36.5629 57.4967 36.7904 57.2662 37.0658 57.0441C37.3425 56.8403 37.636 56.6533 37.9619 56.5479C38.2822 56.4355 38.6165 56.3666 38.948 56.3652C39.2795 56.3596 39.604 56.4088 39.9102 56.5071C39.5941 56.5845 39.2935 56.6365 39.0112 56.7447C38.7247 56.829 38.4634 56.9654 38.2162 57.1017C37.9718 57.2479 37.7414 57.4095 37.5433 57.6063C37.3439 57.7877 37.1458 58.0224 37.0264 58.2136L37.0096 58.2403C36.8986 58.4174 36.664 58.4722 36.487 58.3597C36.3887 58.2979 36.3283 58.1981 36.3129 58.0913C36.2932 57.9535 36.1555 57.7764 35.9477 57.6232C35.744 57.4658 35.4925 57.3393 35.2369 57.2057C34.713 56.9612 34.1511 56.7461 33.5766 56.5071H33.5752Z" fill="#261655"/>
<path d="M97.2466 63.3089C97.8688 63.2372 98.4925 63.2934 99.1092 63.4495C99.4196 63.5282 99.723 63.6505 100.024 63.8262C100.312 63.9991 100.644 64.2858 100.74 64.7567L100.025 64.6358C100.234 64.2985 100.462 64.0679 100.737 63.8458C101.014 63.642 101.307 63.4551 101.633 63.3497C101.954 63.2372 102.288 63.1683 102.619 63.1669C102.951 63.1613 103.275 63.2105 103.582 63.3089C103.266 63.3862 102.965 63.4382 102.683 63.5465C102.396 63.6308 102.135 63.7671 101.888 63.9035C101.643 64.0497 101.413 64.2113 101.215 64.4081C101.015 64.5894 100.817 64.8242 100.698 65.0153L100.681 65.042C100.57 65.2191 100.335 65.2739 100.158 65.1615C100.06 65.0997 99.9997 64.9999 99.9842 64.893C99.9646 64.7553 99.8269 64.5782 99.619 64.425C99.4154 64.2675 99.1639 64.141 98.9083 64.0075C98.3844 63.7629 97.8225 63.5479 97.248 63.3089H97.2466Z" fill="#261655"/>
<path d="M5.48242 108.138V95.8433H7.83381L13.0647 104.52H11.8188L16.9612 95.8433H19.2958L19.3309 108.138H16.6635L16.6466 99.935H17.1382L13.031 106.838H11.75L7.55428 99.935H8.15126V108.138H5.48383H5.48242Z" fill="#261655"/>
<path d="M22.376 108.138V95.8433H27.9581C29.2925 95.8433 30.4682 96.0977 31.4866 96.6079C32.5049 97.1167 33.3 97.828 33.8731 98.7416C34.4462 99.6553 34.7327 100.738 34.7327 101.991C34.7327 103.245 34.4462 104.313 33.8731 105.233C33.3 106.152 32.5035 106.866 31.4866 107.375C30.4682 107.884 29.2925 108.14 27.9581 108.14H22.376V108.138ZM25.219 105.802H27.8162C28.6351 105.802 29.3459 105.647 29.9485 105.337C30.5511 105.026 31.0188 104.585 31.3531 104.011C31.686 103.438 31.8532 102.765 31.8532 101.991C31.8532 101.218 31.686 100.531 31.3531 99.9631C31.0202 99.3953 30.5511 98.9567 29.9485 98.6461C29.3459 98.3354 28.6351 98.1808 27.8162 98.1808H25.219V105.803V105.802Z" fill="#261655"/>
<path d="M39.1999 108.138V97.3712H34.9873V95.8433H45.15V97.3712H40.9374V108.138H39.1999Z" fill="#0184BA"/>
<path d="M47.0263 108.138V95.8433H51.8176C52.8935 95.8433 53.8122 96.0133 54.5735 96.3521C55.3348 96.6923 55.9192 97.1842 56.3293 97.828C56.7381 98.4718 56.9432 99.2392 56.9432 100.129C56.9432 101.019 56.7381 101.783 56.3293 102.422C55.9192 103.06 55.3348 103.549 54.5735 103.888C53.8122 104.228 52.8949 104.396 51.8176 104.396H47.9913L48.7807 103.588V108.137H47.0249L47.0263 108.138ZM48.7821 103.765L47.9927 102.905H51.767C52.8907 102.905 53.7419 102.662 54.3207 102.176C54.8994 101.689 55.1901 101.007 55.1901 100.129C55.1901 99.2505 54.9008 98.5716 54.3207 98.0908C53.7419 97.6101 52.8907 97.3712 51.767 97.3712H47.9927L48.7821 96.4927V103.764V103.765ZM55.2407 108.138L52.1168 103.677H53.9948L57.1539 108.138H55.2407Z" fill="#0184BA"/>
<path d="M58.5107 108.138L64.0746 95.8433H65.8121L71.3942 108.138H69.5513L64.5845 96.8272H65.2868L60.3199 108.138H58.5121H58.5107ZM60.8804 105.064L61.3538 103.658H68.2689L68.7773 105.064H60.879H60.8804Z" fill="#0184BA"/>
<path d="M75.7263 108.138L70.3198 95.8433H72.2161L77.183 107.189H76.0943L81.0963 95.8433H82.8521L77.4639 108.138H75.7263Z" fill="#0184BA"/>
<path d="M86.4521 106.609H93.613V108.137H84.6963V95.8418H93.3672V97.3697H86.4521V106.609ZM86.2934 101.147H92.6115V102.639H86.2934V101.147Z" fill="#0184BA"/>
<path d="M96.0869 108.138V95.8433H97.8427V106.61H104.495V108.138H96.0869Z" fill="#0184BA"/>
<path d="M111.708 108.349C110.736 108.349 109.838 108.19 109.014 107.875C108.189 107.559 107.474 107.113 106.872 106.54C106.269 105.966 105.801 105.293 105.467 104.52C105.133 103.747 104.967 102.904 104.967 101.991C104.967 101.079 105.134 100.234 105.467 99.4627C105.8 98.6896 106.272 98.0163 106.88 97.4428C107.488 96.8694 108.202 96.4238 109.021 96.1075C109.84 95.7912 110.729 95.6338 111.688 95.6338C112.647 95.6338 113.551 95.7912 114.365 96.1075C115.179 96.4238 115.887 96.8694 116.489 97.4428C117.092 98.0163 117.562 98.6868 117.902 99.4543C118.241 100.222 118.411 101.068 118.411 101.993C118.411 102.918 118.241 103.753 117.902 104.531C117.562 105.31 117.092 105.983 116.489 106.551C115.887 107.119 115.179 107.562 114.365 107.877C113.552 108.193 112.666 108.35 111.706 108.35L111.708 108.349ZM111.691 105.926C112.24 105.926 112.747 105.832 113.209 105.645C113.671 105.458 114.079 105.188 114.429 104.836C114.78 104.485 115.052 104.069 115.245 103.59C115.437 103.109 115.534 102.578 115.534 101.991C115.534 101.405 115.437 100.874 115.245 100.393C115.052 99.9139 114.783 99.4979 114.437 99.1464C114.091 98.795 113.685 98.5266 113.218 98.3382C112.75 98.1513 112.24 98.0571 111.691 98.0571C111.142 98.0571 110.635 98.1513 110.172 98.3382C109.71 98.5252 109.303 98.795 108.953 99.1464C108.602 99.4979 108.33 99.9139 108.137 100.393C107.945 100.874 107.848 101.407 107.848 101.991C107.848 102.576 107.945 103.095 108.137 103.581C108.33 104.068 108.599 104.486 108.945 104.836C109.29 105.188 109.696 105.458 110.164 105.645C110.632 105.832 111.142 105.926 111.691 105.926Z" fill="#261655"/>
<path d="M120.692 108.138V95.8433H123.045L130.294 104.696H129.154V95.8433H131.961V108.138H129.627L122.361 99.2856H123.501V108.138H120.693H120.692Z" fill="#261655"/>
<path d="M137.83 105.854H144.518V108.137H135.004V95.8418H144.289V98.1246H137.829V105.853L137.83 105.854ZM137.619 100.795H143.534V103.008H137.619V100.795Z" fill="#261655"/>
<path d="M80.603 29.6402L82.9235 32.5245L95.3982 27.1284C95.6033 26.8107 95.4994 26.3876 95.1735 26.1965C94.2029 25.6286 93.2477 25.4445 92.2574 25.9181L83.9545 30.4358L82.092 29.4209L80.603 29.6388V29.6402Z" fill="#261655"/>
<path d="M89.0392 29.584L84.3125 27.5726L84.6721 26.7095L92.0957 28.4328L89.4858 32.5063L89.1164 31.93L89.0392 29.584Z" fill="#261655"/>
</svg>
