<svg width="50" height="50" viewBox="0 0 50 50" fill="none" xmlns="http://www.w3.org/2000/svg">
<g clip-path="url(#clip0_55_775)">
<path d="M39.5155 30.9732C38.4919 29.9074 37.2572 29.3375 35.9487 29.3375C34.6507 29.3375 33.4054 29.8968 32.3396 30.9627L29.0049 34.2868C28.7305 34.1391 28.4562 34.0019 28.1923 33.8647C27.8124 33.6747 27.4536 33.4953 27.1476 33.3054C24.024 31.3214 21.1852 28.736 18.4626 25.3907C17.1435 23.7234 16.2571 22.3199 15.6133 20.8952C16.4787 20.1038 17.2807 19.2807 18.0616 18.4892C18.3571 18.1937 18.6526 17.8877 18.948 17.5922C21.1641 15.3761 21.1641 12.5057 18.948 10.2896L16.0671 7.40871C15.74 7.08157 15.4023 6.74388 15.0857 6.40619C14.4525 5.75191 13.7877 5.07653 13.1018 4.44336C12.0781 3.43028 10.854 2.89209 9.56656 2.89209C8.27911 2.89209 7.03388 3.43028 5.97859 4.44336C5.96804 4.45391 5.96804 4.45391 5.95749 4.46446L2.36952 8.08409C1.01876 9.43485 0.248402 11.0811 0.0795562 12.9912C-0.173712 16.0726 0.733832 18.943 1.43032 20.8214C3.13988 25.433 5.69367 29.7069 9.50324 34.2868C14.1254 39.8059 19.6867 44.1643 26.0395 47.2351C28.4667 48.3854 31.7064 49.7467 35.326 49.9789C35.5477 49.9894 35.7798 50 35.9909 50C38.4286 50 40.4758 49.1241 42.0799 47.3829C42.0904 47.3618 42.1115 47.3512 42.1221 47.3301C42.6708 46.6653 43.304 46.0638 43.9688 45.42C44.4226 44.9874 44.8869 44.5336 45.3407 44.0587C46.3854 42.9718 46.9342 41.7054 46.9342 40.4074C46.9342 39.0989 46.3749 37.8431 45.309 36.7878L39.5155 30.9732ZM43.2934 42.0853C43.2829 42.0853 43.2829 42.0959 43.2934 42.0853C42.8819 42.5286 42.4598 42.9296 42.006 43.3728C41.3201 44.0271 40.6236 44.713 39.9693 45.4834C38.9035 46.6231 37.6477 47.1613 36.0014 47.1613C35.8431 47.1613 35.6743 47.1613 35.516 47.1507C32.3818 46.9502 29.4692 45.7261 27.2848 44.6813C21.3119 41.7899 16.0671 37.6848 11.7088 32.4823C8.11027 28.145 5.70422 24.135 4.11074 19.8294C3.12933 17.2017 2.77053 15.1545 2.92882 13.2233C3.03435 11.9886 3.50923 10.965 4.38512 10.0891L7.98363 6.49061C8.50072 6.00518 9.04947 5.74136 9.58767 5.74136C10.2525 5.74136 10.7907 6.14237 11.1284 6.48006C11.1389 6.49061 11.1495 6.50116 11.16 6.51171C11.8038 7.11323 12.4158 7.73585 13.0596 8.40067C13.3867 8.73836 13.7244 9.07606 14.0621 9.4243L16.943 12.3052C18.0616 13.4238 18.0616 14.458 16.943 15.5766C16.637 15.8826 16.3415 16.1887 16.0355 16.4841C15.149 17.3917 14.3048 18.2359 13.3867 19.059C13.3656 19.0801 13.3445 19.0907 13.3339 19.1118C12.4264 20.0194 12.5952 20.9058 12.7852 21.5073C12.7957 21.539 12.8063 21.5706 12.8168 21.6023C13.5661 23.4174 14.6214 25.1269 16.2254 27.1636L16.236 27.1742C19.1485 30.7621 22.2194 33.5586 25.6069 35.7009C26.0395 35.9753 26.4828 36.1969 26.9049 36.4079C27.2848 36.5979 27.6436 36.7773 27.9496 36.9672C27.9918 36.9883 28.034 37.02 28.0762 37.0411C28.435 37.2205 28.7727 37.3049 29.121 37.3049C29.9969 37.3049 30.5456 36.7562 30.725 36.5768L34.3341 32.9677C34.6929 32.6089 35.2627 32.1762 35.9276 32.1762C36.5818 32.1762 37.12 32.5878 37.4472 32.9466C37.4577 32.9571 37.4577 32.9571 37.4683 32.9677L43.2829 38.7823C44.3698 39.8587 44.3698 40.9667 43.2934 42.0853Z" fill="#0184BA"/>
<path d="M27.0203 11.8938C29.7852 12.3581 32.2967 13.6666 34.3018 15.6717C36.3068 17.6767 37.6048 20.1883 38.0797 22.9531C38.1958 23.6496 38.7973 24.1351 39.4832 24.1351C39.5676 24.1351 39.6415 24.1245 39.7259 24.1139C40.5068 23.9873 41.0239 23.2486 40.8973 22.4677C40.3274 19.1225 38.7445 16.0727 36.3279 13.6561C33.9113 11.2395 30.8615 9.65655 27.5163 9.0867C26.7354 8.96007 26.0072 9.47716 25.8701 10.2475C25.7329 11.0179 26.2394 11.7671 27.0203 11.8938Z" fill="#0184BA"/>
<path d="M49.942 22.0561C49.0028 16.5475 46.4068 11.5349 42.4178 7.5459C38.4289 3.55692 33.4163 0.960922 27.9077 0.0217193C27.1373 -0.115468 26.4092 0.412174 26.272 1.18253C26.1454 1.96344 26.6624 2.69159 27.4434 2.82878C32.361 3.66245 36.8459 5.99463 40.4128 9.55094C43.9797 13.1178 46.3013 17.6028 47.135 22.5204C47.251 23.2169 47.8526 23.7023 48.5385 23.7023C48.6229 23.7023 48.6968 23.6917 48.7812 23.6812C49.5516 23.5651 50.0792 22.8264 49.942 22.0561Z" fill="#0184BA"/>
</g>
<defs>
<clipPath id="clip0_55_775">
<rect width="50" height="50" fill="white"/>
</clipPath>
</defs>
</svg>
