<svg width="40" height="40" viewBox="0 0 40 40" fill="none" xmlns="http://www.w3.org/2000/svg">
<path d="M4.44434 9.25171V17.4268C4.44312 26.095 9.87891 34.0112 17.9722 37.124C18.6252 37.3755 19.3125 37.5 19.9998 37.5C20.687 37.5 21.3743 37.3743 22.0286 37.124L23.2419 36.6565C30.7224 33.7793 35.5564 26.543 35.5552 18.2227V9.25171C35.5552 8.58032 35.0242 8.02856 34.354 8.00293C29.8606 7.82837 25.2793 6.05713 20.7371 2.74048C20.2976 2.42065 19.7019 2.42065 19.2625 2.74048C14.719 6.05713 10.1377 7.82837 5.64551 8.00293C4.97534 8.02856 4.44434 8.58032 4.44434 9.25171ZM6.94434 10.4211C11.2998 10.0098 15.6821 8.28613 19.9998 5.28442C24.3162 8.28613 28.6997 10.0098 33.0552 10.4211V18.2227C33.0564 25.5005 28.8523 31.8201 22.3435 34.3225L21.1313 34.79C20.4014 35.0708 19.5969 35.0708 18.8694 34.79C11.7356 32.0459 6.94312 25.0684 6.94434 17.4268V10.4211Z" fill="#00BBF2"/>
<path d="M17.4402 25.1636C17.6746 25.3979 17.9919 25.5298 18.324 25.5298C18.656 25.5298 18.9734 25.3979 19.2078 25.1636L26.9824 17.3889C27.4707 16.9006 27.4707 16.1096 26.9824 15.6213C26.4941 15.1331 25.7031 15.1331 25.2148 15.6213L18.324 22.5122L14.7852 18.9722C14.2969 18.4839 13.5059 18.4839 13.0176 18.9722C12.5293 19.4604 12.5293 20.2515 13.0176 20.7397L17.4402 25.1636Z" fill="#00BBF2"/>
</svg>
