<?xml version="1.0" encoding="iso-8859-1"?>
<!-- Generator: Adobe Illustrator 19.0.0, SVG Export Plug-In . SVG Version: 6.00 Build 0)  -->
<svg version="1.1" id="Capa_1" xmlns="http://www.w3.org/2000/svg" xmlns:xlink="http://www.w3.org/1999/xlink" x="0px" y="0px"
	 viewBox="0 0 512 512" style="enable-background:new 0 0 512 512;" xml:space="preserve">
<circle style="fill:#72D8FF;" cx="256.017" cy="256.006" r="218.988"/>
<g>
	<path style="fill:#A0E557;" d="M391.027,125.677c-25.448,0-46.077,20.629-46.077,46.076l0,0c0,9.451-7.663,17.114-17.114,17.114
		l0,0c-16.722,0-30.278,13.556-30.278,30.278v6.583c0,16.722,13.556,30.278,30.278,30.278h147.17
		c0-48.825-15.985-93.913-42.999-130.33C432.007,125.677,391.027,125.677,391.027,125.677z"/>
	<path style="fill:#A0E557;" d="M294.446,349.444h-10.667c-7.824,0-14.165-6.343-14.165-14.165V292.38
		c0-20.088-16.284-36.372-36.372-36.372h-40.455h-16.812c-13.164,0-23.836,10.671-23.836,23.836c0,3.291-2.668,5.959-5.959,5.959
		h-0.89c-20.195,0-36.565,16.371-36.564,36.566v0.004c0.001,20.193,16.371,36.562,36.564,36.562h14.855
		c10.386,0,18.807,8.42,18.807,18.806l0,0c0.001,16.917,13.715,30.63,30.631,30.63h46.635c16.917,0,30.631,13.714,30.631,30.631
		v33.822c13.224-1.864,26.071-4.902,38.426-9.017v-83.532C325.276,363.247,311.473,349.444,294.446,349.444z"/>
</g>
<path style="fill:#FFFFFF;" d="M264.087,10.637L264.087,10.637c2.892,21.825-4.542,43.753-20.109,59.32l-30.648,30.647
	l49.282,102.657l-20.283,20.283l-65.861-86.078l-59.735,59.735h-0.147l3.862,42.848l-24.506,24.507l-18.465-67.308l-67.308-18.464
	l24.507-24.507l42.848,3.862v-0.147l59.735-59.735L51.179,32.395l20.283-20.283L174.12,61.394l30.647-30.647
	C220.334,15.179,242.262,7.746,264.087,10.637L264.087,10.637L264.087,10.637L264.087,10.637z"/>
<path d="M484.882,27.144C446.845-10.893,376-8.351,295.108,31.07c-1.705,0.347-3.275,1.136-4.569,2.261
	c-6.438,3.233-12.936,6.696-19.483,10.388c3.405-11.021,4.483-22.771,2.943-34.395c-0.594-4.481-4.119-8.006-8.6-8.6
	c-24.743-3.278-50.054,5.302-67.703,22.952l-25.638,25.638L75.79,3.098c-3.83-1.837-8.397-1.058-11.398,1.944L44.108,25.324
	c-2.038,2.038-3.098,4.856-2.907,7.732c0.19,2.875,1.613,5.529,3.902,7.281l77.01,58.923l-48.486,48.487l-38.054-3.429
	c-2.947-0.267-5.872,0.792-7.969,2.888L3.098,171.711c-2.519,2.519-3.507,6.188-2.596,9.63c0.912,3.443,3.586,6.142,7.021,7.084
	l27.471,7.536c-5.283,19.493-7.965,39.644-7.965,60.046c0,13.496,1.198,27.004,3.535,40.198
	c-12.33,25.548-21.139,50.443-26.073,73.966c-10.438,49.773-2.603,89.435,22.662,114.7c17.814,17.815,43.525,27.12,74.705,27.12
	c2.546,0,5.133-0.062,7.751-0.187c31.382-1.494,68.023-11.997,106.12-30.362c13.114,2.337,26.582,3.555,40.288,3.555
	c47.004,0,92.173-14.138,130.621-40.886c4.533-3.154,5.652-9.385,2.498-13.919c-3.154-4.534-9.387-5.651-13.919-2.498
	c-23.767,16.534-50.352,27.779-78.368,33.317v-22.007c0-22.404-18.228-40.631-40.632-40.631h-46.635
	c-11.375,0-20.631-9.255-20.632-20.632c-0.002-15.883-12.924-28.805-28.807-28.805h-14.855c-14.646,0-26.563-11.916-26.564-26.567
	c0-7.097,2.763-13.767,7.78-18.785s11.688-7.782,18.784-7.782h0.89c8.801,0,15.959-7.159,15.959-15.958
	c0-7.63,6.207-13.836,13.835-13.836h57.268c14.542,0,26.373,11.831,26.373,26.373v42.899c0,13.324,10.84,24.165,24.166,24.165
	h10.667c11.486,0,20.831,9.344,20.831,20.832v24.214c0,5.523,4.478,9.999,9.999,9.999c5.522,0,9.999-4.477,9.999-9.999v-24.214
	c0-22.514-18.316-40.831-40.83-40.831h-10.667c-2.298,0-4.167-1.869-4.167-4.166V292.38c0-25.57-20.803-46.371-46.371-46.371
	h-57.268c-17.319,0-31.641,13.082-33.604,29.883c-11.339,0.697-21.902,5.447-30.005,13.55c-8.795,8.795-13.638,20.489-13.637,32.931
	c0.001,25.674,20.89,46.56,46.562,46.56h14.855c4.856,0,8.809,3.952,8.809,8.808c0.001,22.403,18.228,40.63,40.631,40.63h46.635
	c11.377,0,20.633,9.256,20.633,20.632v24.615c0,0.117,0.014,0.231,0.018,0.348c-6.893,0.681-13.848,1.031-20.851,1.031
	c-98.986,0-184.306-69.467-204.519-165.8c8.405-16.755,18.351-33.796,29.655-50.746l5.144,18.751
	c0.942,3.435,3.641,6.11,7.084,7.021c0.847,0.224,1.706,0.333,2.559,0.333c2.618,0,5.172-1.029,7.072-2.929l24.507-24.506
	c2.097-2.097,3.154-5.016,2.889-7.969l-3.43-38.053l48.487-48.487l58.922,77.011c1.752,2.289,4.405,3.711,7.281,3.901
	c2.865,0.187,5.693-0.869,7.732-2.907l20.283-20.283c3.002-3.002,3.781-7.572,1.943-11.398l-46.215-96.27l18.382-18.382
	c18.737-12.801,37.287-23.759,55.31-32.813c44.329,9.279,82.977,32.355,111.794,64.208h-19.87c-30.92,0-56.076,25.156-56.076,56.076
	c0,3.923-3.191,7.115-7.115,7.115c-22.21,0-40.278,18.069-40.278,40.278v6.583c0,22.209,18.068,40.278,40.278,40.278h78.218
	c5.522,0,9.999-4.477,9.999-9.999s-4.478-9.999-9.999-9.999h-78.218c-11.182,0-20.279-9.097-20.279-20.279v-6.583
	c0-11.182,9.098-20.279,20.279-20.279c14.95,0,27.113-12.163,27.113-27.114c0-19.893,16.184-36.077,36.077-36.077h28.962
	c2.096,0,4.04-0.648,5.647-1.75c24.892,34.598,39.371,76.924,39.371,122.081c0,34.579-8.618,68.832-24.921,99.06
	c-2.621,4.861-0.807,10.926,4.055,13.547c1.51,0.814,3.136,1.201,4.738,1.201c3.558,0,7.003-1.904,8.811-5.255
	c17.871-33.134,27.316-70.671,27.316-108.553c0-13.703-1.218-27.169-3.556-40.282c18.381-38.128,28.886-74.799,30.368-106.199
	C513.452,74.887,504.138,46.399,484.882,27.144z M184.328,473.496c-63.116,25.425-115.513,24.755-143.032-2.766
	c-25.594-25.593-23.496-66.578-17.23-96.453c3.091-14.734,7.97-30.332,14.451-46.424
	C61.398,397.359,116.201,451.032,184.328,473.496z M47.228,264.953c-0.126-2.98-0.198-5.964-0.198-8.947
	c0-18.61,2.442-36.986,7.252-54.755l15.058,4.131l4.901,17.863C64.308,237.18,55.288,251.118,47.228,264.953z M204.315,104.932
	l46.215,96.27l-7.199,7.199L184.41,131.39c-1.752-2.289-4.405-3.711-7.281-3.901c-2.87-0.19-5.693,0.868-7.732,2.907l-58.789,58.789
	c-0.503,0.375-0.974,0.799-1.403,1.27c-1.895,2.073-2.83,4.847-2.578,7.644l3.441,38.188l-9.035,9.035L87.121,194.6
	c-0.934-3.404-3.594-6.064-6.998-6.998L29.402,173.69l9.035-9.036l38.188,3.441c2.806,0.255,5.571-0.684,7.644-2.578
	c0.47-0.429,0.894-0.898,1.269-1.401l58.791-58.791c2.038-2.038,3.098-4.856,2.907-7.732c-0.19-2.875-1.613-5.529-3.902-7.281
	l-77.01-58.922l7.199-7.199l96.27,46.215c3.829,1.837,8.397,1.058,11.398-1.944l30.647-30.647
	c11.358-11.359,26.933-17.725,42.852-17.784c-0.06,15.919-6.426,31.494-17.784,42.853l-6.711,6.711
	c-0.002,0.002-0.004,0.004-0.005,0.006l-23.932,23.932C203.257,96.536,202.477,101.105,204.315,104.932z M473.501,184.329
	c-22.478-68.144-76.192-122.979-145.728-145.846c62.141-24.988,115.094-25.072,142.967,2.803
	C498.258,68.803,498.928,121.21,473.501,184.329z"/>
<path d="M426.776,393.583c-4.171-3.732-10.408-3.348-14.203,0.874c-0.017,0.019-0.034,0.038-0.051,0.057
	c-3.762,4.252-3.432,10.493,0.753,14.21c1.918,1.703,4.265,2.54,6.609,2.54c2.774,0,5.545-1.172,7.592-3.468
	C431.252,403.559,430.947,397.316,426.776,393.583z"/>
<g>
</g>
<g>
</g>
<g>
</g>
<g>
</g>
<g>
</g>
<g>
</g>
<g>
</g>
<g>
</g>
<g>
</g>
<g>
</g>
<g>
</g>
<g>
</g>
<g>
</g>
<g>
</g>
<g>
</g>
</svg>
